<svg width="10" height="10" viewBox="0 0 5 5" fill="none" xmlns="http://www.w3.org/2000/svg">
<path d="M2.5 3.7775L1.23607 2.51393L1.48893 2.25679L2.32143 3.08929V0H2.67857V3.08929L3.51071 2.25714L3.76393 2.51393L2.5 3.7775ZM0.577143 5C0.412619 5 0.275357 4.945 0.165357 4.835C0.0553571 4.725 0.000238095 4.58762 0 4.42286V3.5575H0.357143V4.42286C0.357143 4.47786 0.38 4.52833 0.425714 4.57429C0.471429 4.62024 0.521786 4.6431 0.576786 4.64286H4.42321C4.47798 4.64286 4.52833 4.62 4.57429 4.57429C4.62024 4.52857 4.6431 4.4781 4.64286 4.42286V3.5575H5V4.42286C5 4.58738 4.945 4.72464 4.835 4.83464C4.725 4.94464 4.58762 4.99976 4.42286 5H0.577143Z" fill="#B0B0B0"/>
</svg>
