<svg class="text-white" width="10" height="10" viewBox="0 0 24 24" fill="none" xmlns="http://www.w3.org/2000/svg" style="font-weight: bold;">
  <path d="M19.704 12L11.212 20.727C11.142 20.7973 11.0868 20.8808 11.0493 20.9726C11.0119 21.0645 10.993 21.1628 10.9939 21.262C10.9947 21.3611 11.0152 21.4592 11.0541 21.5503C11.0931 21.6415 11.1497 21.7241 11.2208 21.7933C11.2919 21.8624 11.376 21.9168 11.4682 21.9532C11.5604 21.9897 11.659 22.0075 11.7581 22.0056C11.8573 22.0037 11.9551 21.9822 12.0458 21.9423C12.1366 21.9023 12.2186 21.8448 12.2869 21.773L21.2869 12.523C21.4232 12.383 21.4994 12.1953 21.4994 12C21.4994 11.8046 21.4232 11.617 21.2869 11.477L12.2869 2.22697C12.2186 2.15516 12.1366 2.09762 12.0458 2.05769C11.9551 2.01776 11.8573 1.99623 11.7581 1.99434C11.659 1.99245 11.5604 2.01025 11.4682 2.04669C11.376 2.08314 11.2919 2.13752 11.2208 2.20667C11.1497 2.27583 11.0931 2.3584 11.0541 2.44959C11.0152 2.54079 10.9947 2.63881 10.9939 2.73797C10.993 2.83714 11.0119 2.93548 11.0493 3.02731C11.0868 3.11915 11.142 3.20264 11.212 3.27297L19.704 12Z" fill="white"/>

</svg>
